<svg width="10" height="10" viewBox="0 0 10 10" fill="none" xmlns="http://www.w3.org/2000/svg">
<path fill-rule="evenodd" clip-rule="evenodd" d="M9.8937 5.11355C9.8937 4.759 9.86188 4.41809 9.80279 4.09082H5.09369V6.02492H7.7846C7.66869 6.64992 7.31642 7.17946 6.78687 7.53401V8.78856H8.40279C9.34824 7.9181 9.8937 6.63628 9.8937 5.11355Z" fill="#4285F4"/>
<path fill-rule="evenodd" clip-rule="evenodd" d="M5.0935 10.0002C6.4435 10.0002 7.57532 9.55248 8.40259 8.78884L6.78668 7.53429C6.33895 7.83429 5.76623 8.01156 5.0935 8.01156C3.79122 8.01156 2.68895 7.13202 2.29576 5.9502H0.625305V7.24565C1.44803 8.87975 3.13895 10.0002 5.0935 10.0002Z" fill="#34A853"/>
<path fill-rule="evenodd" clip-rule="evenodd" d="M2.29597 5.94986C2.19597 5.64986 2.13915 5.3294 2.13915 4.99985C2.13915 4.67031 2.19597 4.34985 2.29597 4.04985V2.75439H0.625508C0.286871 3.4294 0.093689 4.19303 0.093689 4.99985C0.093689 5.80667 0.286871 6.57031 0.625508 7.24531L2.29597 5.94986Z" fill="#FBBC05"/>
<path fill-rule="evenodd" clip-rule="evenodd" d="M5.0935 1.98864C5.82759 1.98864 6.48668 2.24091 7.00486 2.73637L8.43896 1.30228C7.57305 0.495456 6.44123 0 5.0935 0C3.13895 0 1.44803 1.12046 0.625305 2.75455L2.29576 4.05001C2.68895 2.86819 3.79122 1.98864 5.0935 1.98864Z" fill="#EA4335"/>
</svg>
