<svg xmlns="http://www.w3.org/2000/svg" width="20" height="20" fill="none"><path fill="#fff" fill-rule="evenodd" d="M11.874 2.083a.208.208 0 0 0-.208-.208H5.833A2.292 2.292 0 0 0 3.54 4.167v11.666a2.292 2.292 0 0 0 2.292 2.292h8.333a2.292 2.292 0 0 0 2.292-2.292v-8.21a.208.208 0 0 0-.209-.209H12.5a.625.625 0 0 1-.625-.625V2.083ZM10 8.333a1.667 1.667 0 1 0 0 3.334 1.667 1.667 0 0 0 0-3.334Zm-3.333 7.084a2.5 2.5 0 0 1 2.5-2.5h1.667a2.5 2.5 0 0 1 2.5 2.5c0 .46-.373.833-.834.833h-5a.833.833 0 0 1-.833-.833Z" clip-rule="evenodd"/><path fill="#fff" d="M13.124 2.353c0-.153.16-.25.28-.154.101.081.192.176.27.284l2.51 3.498c.057.08-.005.183-.103.183h-2.748a.208.208 0 0 1-.209-.208V2.353Z"/></svg>