<svg width="8" height="8" viewBox="0 0 8 8" fill="none" xmlns="http://www.w3.org/2000/svg">
<path d="M7.72723 1.24517C7.99571 0.976684 7.99571 0.541383 7.72723 0.272897C7.45874 0.00441182 7.02344 0.00441182 6.75495 0.272897L4.00019 3.02766L1.24542 0.272898C0.976937 0.00441244 0.541635 0.00441214 0.27315 0.272898C0.00466451 0.541383 0.0046647 0.976684 0.27315 1.24517L3.02792 3.99994L0.273141 6.75471C0.00465614 7.02319 0.00465586 7.4585 0.273141 7.72698C0.541627 7.99547 0.976928 7.99547 1.24541 7.72698L4.00019 4.97221L6.75496 7.72698C7.02345 7.99547 7.45875 7.99547 7.72723 7.72698C7.99572 7.4585 7.99572 7.0232 7.72723 6.75471L4.97246 3.99994L7.72723 1.24517Z" fill="black"/>
</svg>
