<svg width="16" height="16" viewBox="0 0 16 16" fill="none" xmlns="http://www.w3.org/2000/svg">
<path d="M8.00065 0.208496C3.69743 0.208496 0.208984 3.69694 0.208984 8.00016C0.208984 12.3034 3.69743 15.7918 8.00065 15.7918C12.0502 15.7918 15.3777 12.703 15.7564 8.75251C15.7741 8.56865 15.6796 8.39218 15.5168 8.30487C15.3541 8.21756 15.1548 8.23648 15.0114 8.35287C14.2234 8.99232 13.2198 9.37516 12.1257 9.37516C9.59435 9.37516 7.54232 7.32313 7.54232 4.79183C7.54232 3.2884 8.26571 1.95404 9.38536 1.11752C9.5334 1.00692 9.60053 0.81823 9.55563 0.638974C9.51072 0.459719 9.36256 0.324965 9.17986 0.297215C8.79505 0.238766 8.40124 0.208496 8.00065 0.208496Z" fill="#555555"/>
</svg>
