<svg width="16" height="16" viewBox="0 0 16 16" fill="none" xmlns="http://www.w3.org/2000/svg">
<path d="M7.3125 14.4167C7.3125 14.037 7.6203 13.7292 8 13.7292H13.5C13.6266 13.7292 13.7292 13.6266 13.7292 13.5L13.7292 2.50004C13.7292 2.37348 13.6266 2.27087 13.5 2.27087L8 2.27087C7.6203 2.27087 7.3125 1.96307 7.3125 1.58337C7.3125 1.20368 7.6203 0.895874 8 0.895874H13.5C14.386 0.895874 15.1042 1.61408 15.1042 2.50004V13.5C15.1042 14.386 14.386 15.1042 13.5 15.1042H8C7.6203 15.1042 7.3125 14.7964 7.3125 14.4167Z" fill="white"/>
<path d="M0.208332 9.02233C0.208332 9.52859 0.618737 9.93899 1.125 9.93899H5.57632C5.59734 10.2648 5.62365 10.5903 5.65526 10.9155L5.68245 11.1953C5.72666 11.6502 6.2097 11.9226 6.62185 11.7251C8.29744 10.9221 9.81433 9.82318 11.0995 8.48129L11.127 8.45262C11.3719 8.19699 11.3719 7.79385 11.127 7.53821L11.0995 7.50954C9.81433 6.16766 8.29744 5.06878 6.62185 4.26577C6.2097 4.06824 5.72666 4.34067 5.68245 4.79556L5.65526 5.07533C5.62365 5.40049 5.59734 5.72605 5.57632 6.05185L1.125 6.05185C0.618738 6.05185 0.208332 6.46226 0.208332 6.96852V9.02233Z" fill="white"/>
</svg>
