<svg xmlns="http://www.w3.org/2000/svg" width="40" height="40" fill="none"><path fill="#299764" fill-rule="evenodd" d="m20 6.25 12.123.342a4.307 4.307 0 0 1 4.157 3.816 62.39 62.39 0 0 1 0 14.184 4.307 4.307 0 0 1-4.157 3.816l-10.04.284v3.391h6.25a1.25 1.25 0 0 1 0 2.5H11.667a1.25 1.25 0 0 1 0-2.5h6.25v-3.391l-10.04-.284a4.307 4.307 0 0 1-4.157-3.816 62.39 62.39 0 0 1 0-14.184 4.307 4.307 0 0 1 4.157-3.816L20 6.25ZM8.333 22.917a1.25 1.25 0 1 0 0 2.5h23.334a1.25 1.25 0 0 0 0-2.5H8.333Z" clip-rule="evenodd"/></svg>