<svg xmlns="http://www.w3.org/2000/svg" width="40" height="40" fill="none"><path fill="#299764" d="M16.667 6.25a6.25 6.25 0 1 0 0 12.5 6.25 6.25 0 0 0 0-12.5ZM10 22.083a6.25 6.25 0 0 0-6.25 6.25v1.98c0 1.256.91 2.327 2.149 2.529 3.684.601 7.407.892 11.128.872.26-.001.417-.29.29-.516a11.614 11.614 0 0 1-1.484-5.698c0-1.312.217-2.573.616-3.75a.355.355 0 0 0-.319-.467 12.083 12.083 0 0 1-3.214-.585l-1.443-.47a2.918 2.918 0 0 0-.905-.145H10ZM28.75 25a1.25 1.25 0 1 0-2.5 0v2.954c0 .4.191.776.515 1.011l1.666 1.213a1.25 1.25 0 0 0 1.47-2.022l-1.151-.838V25Z"/><path fill="#299764" fill-rule="evenodd" d="M27.5 36.667a9.167 9.167 0 1 0 0-18.334 9.167 9.167 0 0 0 0 18.334Zm0-2.5a6.667 6.667 0 1 0 0-13.334 6.667 6.667 0 0 0 0 13.334Z" clip-rule="evenodd"/></svg>