<svg xmlns="http://www.w3.org/2000/svg" width="40" height="40" fill="none"><path fill="#fff" fill-rule="evenodd" d="m35.017 16.952.004 6.038c-.042.575-.097 1.15-.164 1.723a2.12 2.12 0 0 1-1.87 1.842c-3.067.343-6.24.343-9.306 0a2.12 2.12 0 0 1-1.871-1.842 40.572 40.572 0 0 1 0-9.427 2.12 2.12 0 0 1 1.87-1.842 42.241 42.241 0 0 1 9.306 0 2.12 2.12 0 0 1 1.87 1.842c.066.555.12 1.11.16 1.666Zm-6.684.548a2.5 2.5 0 1 0 0 5 2.5 2.5 0 0 0 0-5Z" clip-rule="evenodd"/><path fill="#fff" d="M34.006 10.066c.26.449-.227.951-.742.894a44.745 44.745 0 0 0-9.861 0c-2.116.236-3.827 1.902-4.076 4.036a43.07 43.07 0 0 0 0 10.008c.25 2.134 1.96 3.8 4.076 4.036 3.25.363 6.61.363 9.86 0 .52-.058 1.01.448.748.9a8.285 8.285 0 0 1-6.3 4.082l-1.086.115a74.418 74.418 0 0 1-16.594-.115l-.72-.085a6.552 6.552 0 0 1-5.719-5.64 62.734 62.734 0 0 1 0-16.594 6.552 6.552 0 0 1 5.72-5.64l.72-.086a74.416 74.416 0 0 1 16.593-.114l1.086.115c2.691.283 5 1.847 6.295 4.088Z"/></svg>