<svg width="18" height="25" viewBox="0 0 18 25" fill="none" xmlns="http://www.w3.org/2000/svg">
<path fill-rule="evenodd" clip-rule="evenodd" d="M12.1184 0.0625167L12.1127 0.0625H5.88725L5.8816 0.0625167H4.62502C4.10726 0.0625167 3.68752 0.48225 3.68752 1.00002C3.68752 1.51778 4.10726 1.93752 4.62502 1.93752H4.94975V8.2639C-0.614883 10.8944 -1.41878 18.5649 3.58276 22.2744L3.95151 22.5479C6.94985 24.7717 11.0502 24.7717 14.0485 22.5479L14.4172 22.2744C19.4188 18.5649 18.6149 10.8944 13.0502 8.2639V1.93752H13.375C13.8928 1.93752 14.3125 1.51778 14.3125 1.00002C14.3125 0.48225 13.8928 0.0625167 13.375 0.0625167H12.1184ZM3.87109 11.3125H14.1289C13.5636 10.7185 12.8637 10.2197 12.0345 9.86218C11.513 9.63735 11.1752 9.1239 11.1752 8.55604V1.93752H6.82476V8.55604C6.82476 9.1239 6.48698 9.63735 5.96552 9.86218C5.13631 10.2197 4.43639 10.7185 3.87109 11.3125ZM6.50002 17.25C5.80967 17.25 5.25002 17.8097 5.25002 18.5C5.25002 19.1904 5.80967 19.75 6.50002 19.75C7.19038 19.75 7.75002 19.1904 7.75002 18.5C7.75002 17.8097 7.19038 17.25 6.50002 17.25ZM9.00002 16C9.00002 15.3097 9.55967 14.75 10.25 14.75C10.9404 14.75 11.5 15.3097 11.5 16C11.5 16.6904 10.9404 17.25 10.25 17.25C9.55967 17.25 9.00002 16.6904 9.00002 16Z" fill="black"/>
</svg>
